<?xml version="1.0" encoding="UTF-8"?>

<svg xmlns="http://www.w3.org/2000/svg" viewBox="0 0 250 100" width="250" height="100" role="img" aria-label="Critical Thinking with Data">

  
  <g transform="translate(6 6)">

    
    <g fill="#FDB515">
      <circle cx="4" cy="74" r="1.8"></circle>
      <circle cx="12" cy="68" r="1.8"></circle>
      <circle cx="22" cy="62" r="1.8"></circle>
      <circle cx="8" cy="56" r="1.8"></circle>
      <circle cx="18" cy="50" r="1.8"></circle>
      <circle cx="4" cy="44" r="1.8"></circle>
      <circle cx="58" cy="12" r="1.8"></circle>
      <circle cx="68" cy="18" r="1.8"></circle>
      <circle cx="74" cy="8" r="1.8"></circle>
      <circle cx="62" cy="4" r="1.8"></circle>
    </g>

    
    <ellipse cx="42" cy="74" rx="22" ry="2.8" fill="#002676" opacity="0.15"></ellipse>

    
    <circle cx="40" cy="40" r="24" fill="#FDB515"></circle>

    
    <g fill="#002676">
      
      <circle cx="30" cy="35" r="2.6"></circle>
      <path d="M 25.5 47 C 25.5 41.5, 27.5 40, 30 40 C 32.5 40, 34.5 41.5, 34.5 47 Z"></path>
      
      <circle cx="40" cy="33" r="3"></circle>
      <path d="M 34.5 47 C 34.5 40, 37 38, 40 38 C 43 38, 45.5 40, 45.5 47 Z"></path>
      
      <circle cx="50" cy="35" r="2.6"></circle>
      <path d="M 45.5 47 C 45.5 41.5, 47.5 40, 50 40 C 52.5 40, 54.5 41.5, 54.5 47 Z"></path>
    </g>

    
    <path d="M 24 30 Q 19 40, 24 50" fill="none" stroke="#FFFFFF" stroke-width="2.2" stroke-linecap="round" opacity="0.8"></path>

    
    <circle cx="40" cy="40" r="26" fill="none" stroke="#002676" stroke-width="4"></circle>

    
    <line x1="58.5" y1="58.5" x2="80" y2="80" stroke="#FDB515" stroke-width="8" stroke-linecap="round"></line>
    <line x1="58.5" y1="58.5" x2="80" y2="80" stroke="#002676" stroke-width="3" stroke-linecap="round" opacity="0.3"></line>
  </g>

  
  <g fill="#002676" font-family="Fraunces, Georgia, &#39;Times New Roman&#39;, serif" font-style="italic" font-weight="600">
    <text x="98" y="46" font-size="16">Critical Thinking</text>
    <text x="98" y="66" font-size="16">with Data</text>
  </g>
</svg>